<svg width="491" height="196" viewBox="0 0 491 196" fill="none" xmlns="http://www.w3.org/2000/svg">
<path fill-rule="evenodd" clip-rule="evenodd" d="M490.268 67.2324C491.244 68.2087 491.244 69.7916 490.268 70.7679L474.358 86.6778C473.382 87.6541 471.799 87.6541 470.822 86.6778C469.846 85.7015 469.846 84.1186 470.822 83.1423L482.464 71.5001L370.677 71.5001C316 71.5001 264.553 97.3975 231.984 141.316L214.688 164.64C205.96 176.41 194.072 185.461 180.404 190.743C138.133 207.078 90.9314 183.781 78.1875 140.293L50.0039 44.1159C43.4764 21.8408 23.5602 6.14178 0.376701 4.99695L0.623305 0.00303652C25.9331 1.25287 47.6759 18.3918 54.8021 42.7098L82.9857 138.886C94.9067 179.567 139.061 201.359 178.602 186.079C191.387 181.138 202.507 172.671 210.672 161.662L227.968 138.338C261.48 93.1474 314.416 66.5002 370.677 66.5001L482.464 66.5001L470.822 54.858C469.846 53.8817 469.846 52.2988 470.822 51.3225C471.799 50.3462 473.382 50.3462 474.358 51.3225L490.268 67.2324Z" fill="#2DE983"/>
</svg>
