<svg width="457" height="152" viewBox="0 0 457 152" fill="none" xmlns="http://www.w3.org/2000/svg">
<path d="M452.022 37.9519L455.479 37.4002L452.022 37.9519ZM142.895 26.2824L142.895 29.7824L142.895 26.2824ZM1.52501 23.8077C0.158162 25.1746 0.158165 27.3906 1.52501 28.7575L23.7989 51.0313C25.1657 52.3981 27.3818 52.3981 28.7486 51.0313C30.1155 49.6645 30.1155 47.4484 28.7486 46.0816L8.94963 26.2826L28.7486 6.48358C30.1154 5.11675 30.1154 2.90067 28.7486 1.53383C27.3817 0.166992 25.1657 0.167003 23.7988 1.53385L1.52501 23.8077ZM282.265 111.127L285.039 108.993L282.265 111.127ZM262.183 85.02L259.409 87.154L262.183 85.02ZM373.224 147.099L373.788 150.553L373.224 147.099ZM446.544 25.8339L448.566 38.5035L455.479 37.4002L453.456 24.7305L446.544 25.8339ZM142.895 22.7824L3.99986 22.7826L3.99989 29.7826L142.895 29.7824L142.895 22.7824ZM285.039 108.993L264.957 82.886L259.409 87.154L279.491 113.261L285.039 108.993ZM372.66 143.645C339.302 149.093 305.647 135.783 285.039 108.993L279.491 113.261C301.669 142.093 337.889 156.417 373.788 150.553L372.66 143.645ZM142.895 29.7824C188.533 29.7824 231.582 50.98 259.409 87.154L264.957 82.886C235.806 44.9894 190.706 22.7824 142.895 22.7824L142.895 29.7824ZM448.566 38.5035C456.543 88.4755 422.603 135.487 372.66 143.645L373.788 150.553C427.537 141.774 464.063 91.18 455.479 37.4002L448.566 38.5035Z" fill="white"/>
</svg>
