<svg width="383" height="177" viewBox="0 0 383 177" fill="none" xmlns="http://www.w3.org/2000/svg">
<path d="M303.164 3.8023L303.545 1.33154L303.164 3.8023ZM157.089 121.761L158.052 119.454L157.089 121.761ZM136.27 113.071L137.233 110.764L136.27 113.071ZM64.8467 122.524L66.3768 124.501L64.8467 122.524ZM0.020142 170.457C-0.154441 171.827 0.814336 173.079 2.18397 173.253L24.5034 176.098C25.873 176.273 27.1248 175.304 27.2994 173.934C27.474 172.565 26.5052 171.313 25.1356 171.138L5.29612 168.61L7.82493 148.77C7.9995 147.4 7.03073 146.149 5.6611 145.974C4.29146 145.8 3.03963 146.768 2.86506 148.138L0.020142 170.457ZM236.836 64.6694L234.342 64.8375L236.836 64.6694ZM382.114 13.4548L303.545 1.33154L302.783 6.27306L381.351 18.3963L382.114 13.4548ZM158.052 119.454L137.233 110.764L135.307 115.378L156.126 124.068L158.052 119.454ZM63.3167 120.547L0.970016 168.796L4.03013 172.751L66.3768 124.501L63.3167 120.547ZM137.233 110.764C112.628 100.493 84.4027 104.228 63.3167 120.547L66.3768 124.501C86.0404 109.283 112.362 105.8 135.307 115.378L137.233 110.764ZM234.342 64.8375C237.097 105.731 195.875 135.242 158.052 119.454L156.126 124.068C197.377 141.287 242.336 109.101 239.33 64.5013L234.342 64.8375ZM303.545 1.33154C265.463 -4.54451 231.751 26.3924 234.342 64.8375L239.33 64.5013C236.955 29.2512 267.866 0.885369 302.783 6.27306L303.545 1.33154Z" fill="white"/>
</svg>
