<svg width="36" height="27" viewBox="0 0 36 27" fill="none" xmlns="http://www.w3.org/2000/svg">
<path d="M29.7031 2.35156C33.5703 8.09375 35.5039 14.5391 34.8008 21.9805C34.8008 21.9805 34.8008 22.0391 34.7422 22.0391C32.1641 23.9727 29.2344 25.4375 26.1289 26.375C26.0703 26.375 26.0117 26.375 26.0117 26.375C25.3672 25.4375 24.7812 24.5 24.2539 23.5039V23.4453C24.2539 23.3867 24.2539 23.3867 24.3125 23.3281C25.25 22.9766 26.1289 22.5664 27.0078 22.0391C27.0664 22.0391 27.0664 22.0391 27.0664 21.9805C27.0664 21.9219 27.0664 21.9219 27.0078 21.8633C26.832 21.7461 26.6562 21.6289 26.4805 21.4531H26.4219H26.3633C20.7969 24.0312 14.7031 24.0312 9.07812 21.4531C9.01953 21.4531 9.01953 21.4531 9.01953 21.4531C8.96094 21.4531 8.96094 21.4531 8.96094 21.4531C8.78516 21.6289 8.60938 21.7461 8.43359 21.8633C8.375 21.9219 8.375 21.9219 8.375 21.9805C8.375 22.0391 8.375 22.0391 8.43359 22.0391C9.25391 22.5664 10.1914 22.9766 11.1289 23.3281C11.1289 23.3867 11.1875 23.3867 11.1875 23.4453V23.5039C10.6602 24.5 10.0742 25.4375 9.42969 26.375C9.37109 26.375 9.37109 26.375 9.3125 26.375C6.14844 25.4375 3.21875 23.9727 0.699219 22.0391C0.640625 22.0391 0.640625 21.9805 0.640625 21.9805C0.0546875 15.5352 1.28516 9.03125 5.73828 2.35156C5.73828 2.35156 5.73828 2.35156 5.79688 2.35156C7.96484 1.35547 10.3672 0.59375 12.7695 0.183594C12.7695 0.183594 12.7695 0.183594 12.8281 0.183594H12.8867C13.2383 0.769531 13.5312 1.41406 13.7656 2C15.0547 1.82422 16.3438 1.70703 17.6914 1.70703C19.0391 1.70703 20.3867 1.82422 21.6758 2C21.9102 1.41406 22.2031 0.769531 22.5547 0.183594L22.6133 0.125C22.6133 0.125 22.6133 0.183594 22.6719 0.183594C25.0742 0.59375 27.4766 1.35547 29.6445 2.35156C29.7031 2.35156 29.7031 2.35156 29.7031 2.35156ZM12.0078 18.0547C13.707 18.0547 15.1133 16.4727 15.1133 14.5977C15.1133 12.6641 13.7656 11.1406 12.0078 11.1406C10.3086 11.1406 8.90234 12.6641 8.90234 14.5977C8.90234 16.4727 10.3086 18.0547 12.0078 18.0547ZM23.4336 18.0547C25.1914 18.0547 26.5391 16.4727 26.5391 14.5977C26.5977 12.6641 25.1914 11.1406 23.4336 11.1406C21.7344 11.1406 20.3867 12.6641 20.3867 14.5977C20.3867 16.4727 21.7344 18.0547 23.4336 18.0547Z" fill="white"/>
</svg>
