<svg width="39" height="24" viewBox="0 0 39 24" fill="none" xmlns="http://www.w3.org/2000/svg">
<path d="M37.3403 2.29688C36.7778 4.6875 31.7153 11.8594 31.7153 11.8594C31.2935 12.5625 31.0825 12.9141 31.7153 13.6875C31.9966 14.0391 37.27 19.1016 38.0435 21.4922C38.395 22.6875 37.8325 23.25 36.6372 23.25H32.4888C30.9419 23.25 30.4497 22.0547 27.6372 19.2422C25.1763 16.8516 24.1216 16.5 23.4888 16.5C22.2231 16.5 22.4341 16.9922 22.4341 21.7031C22.4341 22.6875 22.0825 23.25 19.481 23.25C15.1216 23.25 10.27 20.6484 6.82471 15.7266C1.69189 8.48438 0.285645 3.07031 0.285645 1.94531C0.285645 1.3125 0.566895 0.75 1.69189 0.75H5.84033C6.89502 0.75 7.31689 1.24219 7.73877 2.36719C9.77783 8.27344 13.1528 13.4766 14.5591 13.4766C15.1216 13.4766 15.3325 13.1953 15.3325 11.8594V5.74219C15.1919 2.92969 13.7153 2.71875 13.7153 1.73438C13.7153 1.24219 14.0669 0.75 14.77 0.75H21.2388C22.1528 0.75 22.4341 1.24219 22.4341 2.29688V10.5234C22.4341 11.3672 22.856 11.7188 23.0669 11.7188C23.6294 11.7188 24.0513 11.3672 25.0356 10.4531C27.9888 7.07812 30.0981 1.94531 30.0981 1.94531C30.3794 1.3125 30.8716 0.75 31.9263 0.75H36.0747C37.3403 0.75 37.5513 1.45312 37.3403 2.29688Z" fill="white"/>
</svg>
