<svg width="59" height="29" viewBox="0 0 59 29" fill="none" xmlns="http://www.w3.org/2000/svg">
<g clip-path="url(#clip0_1_284)">
<path d="M50.2829 8.27795V15.368H47.7406V10.3945H45.2928V15.368H42.7505V8.27747L50.2829 8.27795Z" fill="white"/>
<path fill-rule="evenodd" clip-rule="evenodd" d="M37.5292 15.6215C39.8051 15.6215 41.4951 14.2319 41.4951 12.1253C41.4951 10.0864 40.2482 8.76255 38.1643 8.76255C37.2026 8.76255 36.409 9.09967 35.8113 9.68136C35.954 8.47907 36.975 7.60134 38.0991 7.60134C38.3585 7.60134 40.3115 7.59723 40.3115 7.59723L41.416 5.49255C41.416 5.49255 38.964 5.54814 37.8241 5.54814C35.2197 5.59333 33.4605 7.95079 33.4605 10.8141C33.4605 14.1498 35.1762 15.6215 37.5292 15.6215ZM37.5431 10.6268C38.3881 10.6268 38.9739 11.1797 38.9739 12.1251C38.9739 12.976 38.4534 13.6771 37.5431 13.679C36.6724 13.679 36.0865 13.0294 36.0865 12.1396C36.0865 11.194 36.6724 10.6268 37.5431 10.6268Z" fill="white"/>
<path d="M31.3912 12.9944C31.3912 12.9944 30.7908 13.339 29.8941 13.4042C28.8632 13.4347 27.9447 12.7863 27.9447 11.6343C27.9447 10.5105 28.7552 9.86648 29.8682 9.86648C30.5506 9.86648 31.4533 10.3375 31.4533 10.3375C31.4533 10.3375 32.1139 9.13037 32.4561 8.52668C31.8295 8.05374 30.9949 7.79443 30.0242 7.79443C27.5744 7.79443 25.6769 9.38508 25.6769 11.62C25.6769 13.8835 27.4603 15.4371 30.0242 15.3903C30.7408 15.3637 31.7295 15.1131 32.3321 14.7276L31.3912 12.9944Z" fill="white"/>
<path d="M0.130005 6.31238L3.6566 12.5897V16.4186L0.13413 22.6836L0.130005 6.31238Z" fill="#5B57A2"/>
<path d="M13.6707 10.3053L16.9753 8.28839L23.7382 8.2821L13.6707 14.4238V10.3053Z" fill="#D90751"/>
<path d="M13.652 6.27536L13.6707 14.5863L10.1359 12.4234V0L13.652 6.27536Z" fill="#FAB718"/>
<path d="M23.7382 8.28216L16.975 8.28844L13.652 6.27536L10.1359 0L23.7382 8.28216Z" fill="#ED6F26"/>
<path d="M13.6707 22.7184V18.6862L10.1359 16.5643L10.1378 29L13.6707 22.7184Z" fill="#63B22F"/>
<path d="M16.967 20.7198L3.65636 12.5897L0.130005 6.31238L23.7239 20.7116L16.967 20.7198Z" fill="#1487C9"/>
<path d="M10.1381 29L13.6705 22.7183L16.9668 20.7198L23.7237 20.7115L10.1381 29Z" fill="#017F36"/>
<path d="M0.134155 22.6836L10.1648 16.5646L6.79251 14.5042L3.65662 16.4186L0.134155 22.6836Z" fill="#984995"/>
<path d="M27.9454 20.1397C27.8678 20.2383 27.7656 20.3127 27.6431 20.363C27.5173 20.4139 27.3828 20.4399 27.247 20.4393C27.112 20.4412 26.9777 20.4187 26.8507 20.3731C26.7366 20.3319 26.6323 20.2675 26.5444 20.1841C26.4577 20.1006 26.3895 19.9998 26.3445 19.8883C26.2957 19.7662 26.2714 19.6358 26.2729 19.5043C26.2729 19.3738 26.2955 19.253 26.3423 19.1384C26.3872 19.0237 26.4525 18.9253 26.5343 18.8426C26.616 18.7583 26.7141 18.694 26.8243 18.6438C26.9366 18.5954 27.0592 18.5693 27.1939 18.5693C27.339 18.5693 27.4737 18.5874 27.5962 18.6235C27.7188 18.6597 27.8229 18.7201 27.9085 18.8047L27.7595 19.056C27.6875 18.991 27.6026 18.9416 27.5103 18.911C27.4226 18.8829 27.3309 18.8687 27.2387 18.869C27.1572 18.869 27.0796 18.8849 27.0041 18.9151C26.9297 18.945 26.8617 18.9887 26.8039 19.044C26.7447 19.1008 26.6981 19.1693 26.667 19.245C26.6323 19.3233 26.616 19.4098 26.616 19.5063C26.616 19.6049 26.6342 19.6933 26.6689 19.7697C26.7039 19.8482 26.7507 19.9147 26.8099 19.9707C26.8692 20.0273 26.9386 20.0693 27.0182 20.0976C27.098 20.1278 27.1817 20.1418 27.2715 20.1418C27.3817 20.1418 27.4819 20.1196 27.5676 20.0773C27.6525 20.0365 27.7287 19.9799 27.7923 19.9106L27.9454 20.1397ZM28.366 20.397V18.6075H28.6887V19.9408L29.7383 18.6075H30.0611V20.3973H29.7383V19.064L28.6887 20.3973L28.366 20.397ZM32.1991 20.1397C32.1197 20.2391 32.0155 20.3161 31.897 20.363C31.7711 20.4139 31.6365 20.4399 31.5007 20.4393C31.3657 20.4411 31.2316 20.4187 31.1046 20.3731C30.9904 20.3319 30.8861 20.2675 30.7981 20.1841C30.7113 20.1006 30.6432 19.9998 30.5981 19.8883C30.5494 19.7662 30.5251 19.6358 30.5265 19.5043C30.5265 19.3738 30.5491 19.253 30.596 19.1384C30.6411 19.0237 30.7064 18.9253 30.7879 18.8426C30.8697 18.7583 30.9677 18.694 31.0779 18.6438C31.1943 18.5927 31.3204 18.5673 31.4475 18.5693C31.5926 18.5693 31.7273 18.5874 31.8499 18.6235C31.9724 18.6597 32.0765 18.7201 32.1624 18.8047L32.0132 19.056C31.9412 18.991 31.8564 18.9416 31.7642 18.911C31.6765 18.8829 31.5848 18.8687 31.4927 18.869C31.3304 18.8695 31.1746 18.9322 31.0575 19.044C30.9989 19.1012 30.9524 19.1696 30.9207 19.245C30.886 19.3233 30.8697 19.4098 30.8697 19.5063C30.8697 19.6049 30.8881 19.6933 30.9228 19.7697C30.9575 19.8482 31.0044 19.9147 31.0636 19.9707C31.1228 20.0273 31.1925 20.0693 31.2721 20.0976C31.3517 20.1257 31.4354 20.1418 31.5252 20.1418C31.6356 20.1418 31.7336 20.1196 31.8212 20.0773C31.9061 20.0365 31.9824 19.9799 32.046 19.9106L32.1991 20.1397ZM32.3646 18.6075H34.0206V18.9253H33.355V20.397H33.0322V18.9253H32.3665V18.6075H32.3646Z" fill="white"/>
<path fill-rule="evenodd" clip-rule="evenodd" d="M35.5279 20.3792C35.6504 20.341 35.7545 20.2825 35.8443 20.2023L35.7463 19.9529C35.6871 20.0053 35.6075 20.0495 35.5116 20.0858C35.4155 20.122 35.3073 20.1399 35.1888 20.1399C35.0112 20.1399 34.8641 20.0938 34.7477 19.9993C34.6314 19.9045 34.5681 19.7721 34.5538 19.6029H35.9506C35.9649 19.5406 35.971 19.4703 35.971 19.3879C35.971 19.2651 35.9484 19.1546 35.9035 19.0541C35.8617 18.9565 35.8007 18.8682 35.724 18.7946C35.6462 18.7216 35.5545 18.6649 35.4543 18.6278C35.3495 18.5873 35.238 18.5668 35.1255 18.5674C34.9743 18.5674 34.8416 18.5935 34.7253 18.6418C34.6154 18.6879 34.516 18.7556 34.4331 18.841C34.3527 18.9259 34.2909 19.0265 34.2516 19.1365C34.2085 19.2537 34.187 19.3776 34.1883 19.5024C34.1883 19.6433 34.2128 19.7719 34.2577 19.8867C34.3014 19.9979 34.3682 20.0986 34.4538 20.1822C34.5375 20.2644 34.6394 20.327 34.76 20.3712C34.8892 20.4168 35.0254 20.4392 35.1624 20.4374C35.2865 20.4367 35.4097 20.4169 35.5279 20.3792ZM34.711 19.0017C34.811 18.9113 34.9437 18.8671 35.1112 18.8671C35.2684 18.8671 35.3951 18.9094 35.4871 18.9939C35.5791 19.0783 35.6279 19.195 35.6361 19.3436H34.5334C34.549 19.212 34.6121 19.0903 34.711 19.0017Z" fill="white"/>
<path d="M36.41 18.6075H36.7041L37.4026 19.4945L38.0641 18.6075H38.35V20.3973H38.0274V19.0923L37.4022 19.9177C37.3998 19.9208 37.3961 19.9227 37.3922 19.9227C37.3883 19.9227 37.3847 19.9209 37.3823 19.9179L36.7328 19.0921V20.3971H36.41V18.6075Z" fill="white"/>
<path fill-rule="evenodd" clip-rule="evenodd" d="M39.228 18.6136C39.13 18.6391 39.0365 18.679 38.9504 18.732L39.036 18.9858C39.1096 18.9495 39.1831 18.9193 39.2566 18.8932C39.3302 18.8669 39.4241 18.8548 39.5364 18.8548C39.6262 18.8548 39.6978 18.869 39.7529 18.8971C39.808 18.9232 39.8488 18.9635 39.8774 19.0119C39.906 19.0602 39.9245 19.1204 39.9347 19.1907C39.9449 19.261 39.949 19.3374 39.949 19.42C39.8829 19.3742 39.8077 19.3433 39.7284 19.3294C39.6517 19.3142 39.5738 19.3062 39.4957 19.3053C39.3996 19.3053 39.3098 19.3195 39.2239 19.3434C39.1382 19.3676 39.0647 19.4039 39.0054 19.4522C38.945 19.5004 38.8962 19.5615 38.8625 19.631C38.8265 19.7071 38.8084 19.7903 38.8094 19.8744C38.8094 20.0493 38.8606 20.1861 38.9625 20.2828C39.0647 20.3792 39.1993 20.4273 39.3668 20.4273C39.518 20.4273 39.6386 20.4012 39.7303 20.349C39.8223 20.2966 39.8958 20.2364 39.949 20.168V20.3993H40.2511V19.3014C40.2511 19.0679 40.2002 18.8872 40.096 18.7603C39.9939 18.6337 39.8121 18.5694 39.5549 18.5694C39.4403 18.5694 39.3321 18.5853 39.228 18.6136ZM39.7675 20.0636C39.6939 20.1158 39.5978 20.1397 39.4794 20.1397C39.3753 20.1397 39.2935 20.1136 39.2365 20.0634C39.1792 20.0112 39.1506 19.9428 39.1506 19.8582C39.1506 19.8082 39.1608 19.7659 39.1833 19.7277C39.2059 19.6895 39.2365 19.6593 39.2712 19.6351C39.3091 19.6099 39.3513 19.5914 39.3957 19.5808C39.4428 19.5687 39.4896 19.5626 39.5386 19.5626C39.6981 19.5626 39.8347 19.6008 39.947 19.6813V19.9085C39.8941 19.9675 39.8337 20.0198 39.7675 20.0636ZM43.1002 17.978C43.1654 17.9481 43.2266 17.8978 43.2839 17.8234L43.1082 17.572C43.0633 17.6324 43.0123 17.6745 42.955 17.6967C42.8943 17.7203 42.8314 17.7378 42.7672 17.7489L42.706 17.7598C42.6529 17.769 42.5959 17.7791 42.5345 17.7893C42.436 17.8074 42.34 17.8371 42.2486 17.8777C42.1035 17.9401 41.9872 18.0244 41.8994 18.131C41.8115 18.2376 41.7421 18.3582 41.695 18.4911C41.6474 18.6257 41.6152 18.7653 41.5992 18.9072C41.5827 19.0522 41.5747 19.1907 41.5747 19.3234C41.5747 19.4945 41.597 19.6491 41.6419 19.7879C41.687 19.9268 41.7501 20.0433 41.8339 20.1378C41.9176 20.2345 42.0178 20.307 42.1362 20.3592C42.2547 20.4114 42.3874 20.4375 42.5364 20.4375C42.6733 20.4375 42.8 20.4114 42.9143 20.363C43.0245 20.3166 43.1244 20.249 43.2084 20.1641C43.2899 20.0815 43.3554 19.9829 43.4003 19.8724C43.4472 19.7618 43.4697 19.6431 43.4697 19.5184C43.4697 19.3838 43.4494 19.2613 43.4105 19.1525C43.3748 19.0488 43.3178 18.9537 43.2431 18.8732C43.1683 18.7939 43.0769 18.7321 42.9754 18.6919C42.8636 18.6481 42.7444 18.6262 42.6243 18.6276C42.5466 18.6276 42.4711 18.6378 42.3976 18.6578C42.3261 18.6779 42.2574 18.707 42.1933 18.7443C42.131 18.7798 42.074 18.8238 42.0239 18.8748C41.9749 18.9254 41.9341 18.9817 41.9054 19.0459H41.8972C41.9035 18.9635 41.9137 18.8792 41.9319 18.7927C41.9503 18.7062 41.9768 18.6235 42.0117 18.5452C42.0464 18.4669 42.0913 18.3963 42.1464 18.3321C42.2055 18.2672 42.2779 18.2157 42.3588 18.1813C42.4477 18.1391 42.5417 18.1087 42.6386 18.0909L42.7026 18.0793C42.7665 18.0677 42.8274 18.0566 42.8856 18.0445C42.9633 18.0285 43.0346 18.008 43.1002 17.978ZM41.9647 19.6975C41.9331 19.596 41.9179 19.4901 41.9198 19.3838C41.9335 19.3228 41.9584 19.2649 41.9933 19.2129C42.028 19.1586 42.0729 19.1105 42.126 19.0679C42.246 18.9744 42.3942 18.9241 42.5466 18.9254C42.7366 18.9254 42.8796 18.9836 42.9795 19.0984C43.0798 19.2149 43.1288 19.3596 43.1288 19.5346C43.1288 19.6211 43.1123 19.6997 43.0839 19.7719C43.0563 19.8432 43.0146 19.9082 42.9613 19.9631C42.908 20.0181 42.8441 20.0618 42.7735 20.0916C42.7 20.1238 42.6201 20.14 42.5303 20.14C42.4406 20.14 42.3588 20.1218 42.2833 20.0856C42.2083 20.0501 42.142 19.9986 42.0892 19.9348C42.0338 19.8637 41.9917 19.7833 41.9647 19.6975ZM45.9448 18.6076H45.6221V20.3973H45.9448V18.6076ZM43.9352 18.6076H44.258V19.1445H44.5562C44.697 19.1445 44.8113 19.1627 44.9032 19.1967C44.9952 19.2311 45.0688 19.2772 45.1238 19.3335C45.1789 19.3898 45.2178 19.4563 45.2403 19.5305C45.2627 19.6049 45.275 19.6813 45.275 19.7618C45.275 19.8422 45.2627 19.9188 45.2362 19.9952C45.2117 20.0716 45.1687 20.1378 45.1115 20.1982C45.0544 20.2586 44.9768 20.307 44.8787 20.3432C44.7807 20.3792 44.6623 20.3993 44.5193 20.3993H43.9333V18.6076H43.9352ZM44.258 19.444V20.0996H44.4929C44.6543 20.0996 44.7686 20.0716 44.8338 20.015C44.8994 19.9587 44.9319 19.8785 44.9319 19.7719C44.9319 19.6632 44.8972 19.581 44.8319 19.5244C44.7644 19.4681 44.6521 19.4399 44.497 19.4399H44.258V19.444Z" fill="white"/>
<path d="M48.0789 20.1397C48.0013 20.2383 47.8991 20.3127 47.7765 20.363C47.6508 20.4139 47.5162 20.4399 47.3805 20.4393C47.2455 20.4412 47.1112 20.4187 46.9842 20.3731C46.8701 20.3319 46.7658 20.2676 46.6779 20.1841C46.5911 20.1006 46.5229 19.9998 46.4777 19.8883C46.4292 19.7662 46.4049 19.6357 46.4064 19.5043C46.4064 19.3738 46.4287 19.253 46.4758 19.1385C46.5207 19.0237 46.586 18.9253 46.6677 18.8426C46.7495 18.7583 46.8473 18.694 46.9577 18.6438C47.0741 18.5927 47.2002 18.5673 47.3273 18.5693C47.4722 18.5693 47.6071 18.5874 47.7297 18.6235C47.8522 18.6597 47.9564 18.7201 48.042 18.8047L47.893 19.056C47.821 18.991 47.7361 18.9416 47.6438 18.911C47.5561 18.8829 47.4644 18.8687 47.3722 18.869C47.2907 18.869 47.213 18.8849 47.1373 18.9152C47.063 18.945 46.9951 18.9887 46.9374 19.044C46.8786 19.1011 46.8321 19.1695 46.8005 19.245C46.7658 19.3233 46.7495 19.4098 46.7495 19.5063C46.7495 19.6049 46.7677 19.6933 46.8024 19.7697C46.8371 19.8482 46.8842 19.9147 46.9434 19.9708C47.0026 20.0273 47.072 20.0693 47.1516 20.0976C47.2315 20.1257 47.3152 20.1419 47.405 20.1419C47.5152 20.1419 47.6132 20.1196 47.7011 20.0773C47.7859 20.0365 47.8622 19.9799 47.9258 19.9106L48.0789 20.1397ZM48.2442 18.6075H49.9005V18.9253H49.2345V20.3971H48.912V18.9253H48.2464V18.6075H48.2442Z" fill="white"/>
<path fill-rule="evenodd" clip-rule="evenodd" d="M50.5744 18.6077H50.2516V21.1936H50.5744V20.3149C50.6397 20.3572 50.7173 20.3874 50.8071 20.4074C50.8969 20.4275 50.9908 20.4374 51.0869 20.4374C51.2299 20.4374 51.3585 20.4113 51.475 20.3632C51.5867 20.3156 51.6879 20.2467 51.773 20.1602C51.8567 20.0735 51.92 19.9729 51.9649 19.8543C52.0098 19.7358 52.0324 19.609 52.0324 19.4744C52.0324 19.3414 52.012 19.2189 51.9732 19.1082C51.9366 19.0031 51.8797 18.9062 51.8057 18.8228C51.7331 18.7416 51.643 18.6776 51.5422 18.6358C51.432 18.5886 51.3129 18.5653 51.193 18.5674C51.0665 18.5674 50.9481 18.5916 50.8357 18.6399C50.7234 18.6882 50.6355 18.7462 50.5744 18.8187V18.6077ZM50.7991 18.9396C50.8911 18.8912 50.9911 18.8671 51.0993 18.8671C51.1932 18.8671 51.2769 18.8811 51.3526 18.9113C51.4262 18.9415 51.4873 18.9838 51.5385 19.0401C51.5895 19.0964 51.6283 19.1609 51.6528 19.237C51.6793 19.3134 51.6917 19.3961 51.6917 19.4864C51.6917 19.5831 51.6752 19.6694 51.6468 19.7499C51.62 19.8262 51.5775 19.8961 51.522 19.955C51.4663 20.0133 51.3988 20.0592 51.324 20.0896C51.2406 20.1244 51.1509 20.1416 51.0605 20.1399C50.9729 20.1399 50.8911 20.13 50.8134 20.1099C50.7284 20.0869 50.6477 20.0502 50.5746 20.0012V19.1143C50.6317 19.0461 50.7074 18.9879 50.7991 18.9396ZM54.5075 18.6075H54.1847V20.3973H54.5075V18.6075ZM52.4959 18.6075H52.8187V19.1445H53.1167C53.2577 19.1445 53.372 19.1626 53.4639 19.1967C53.5559 19.231 53.6295 19.2772 53.6845 19.3335C53.7396 19.3898 53.7785 19.4562 53.8008 19.5304C53.8233 19.6049 53.8355 19.6812 53.8355 19.7617C53.8355 19.8422 53.8234 19.9188 53.7969 19.9952C53.7724 20.0715 53.7294 20.1377 53.6722 20.1982C53.6151 20.2586 53.5375 20.3069 53.4394 20.3432C53.3414 20.3792 53.223 20.3992 53.08 20.3992H52.494V18.6075H52.4959ZM52.8208 19.4439V20.0996H53.0558C53.2169 20.0996 53.3314 20.0715 53.3967 20.015C53.462 19.9587 53.4948 19.8784 53.4948 19.7719C53.4948 19.6631 53.4601 19.5809 53.3948 19.5244C53.3273 19.4681 53.215 19.4398 53.0599 19.4398H52.8208V19.4439Z" fill="white"/>
<path d="M56.0555 19.4703L56.7457 20.3973H56.3496L55.8165 19.6733L55.2753 20.3973H54.8996L55.5857 19.4862L54.9404 18.6075H55.3367L55.8289 19.2832L56.329 18.6075H56.7049L56.0555 19.4703ZM27.7066 22.6093H26.7163V24.1014H26.3935V22.3118H28.0291V24.1014H27.7066V22.6093ZM29.8609 22.6294H29.2238L29.2032 22.931C29.1809 23.1864 29.1503 23.3916 29.1074 23.5482C29.0644 23.7053 29.0113 23.8259 28.9501 23.9102C28.889 23.9948 28.8174 24.053 28.7356 24.0813C28.6512 24.1118 28.562 24.1267 28.4723 24.1255L28.4478 23.8157C28.4825 23.8176 28.5232 23.8097 28.5681 23.7896C28.6133 23.7695 28.6582 23.7253 28.7009 23.6591C28.7438 23.5905 28.7827 23.494 28.8174 23.3693C28.8521 23.2427 28.8746 23.0779 28.8868 22.8705L28.9195 22.3135H30.1836V24.1033H29.8609V22.6294Z" fill="white"/>
<path fill-rule="evenodd" clip-rule="evenodd" d="M31.0536 22.316C30.9493 22.344 30.8553 22.3841 30.7757 22.4344L30.8617 22.6879C30.9352 22.6516 31.0087 22.6214 31.082 22.5953C31.1555 22.5692 31.2497 22.5571 31.3618 22.5571C31.4518 22.5571 31.5232 22.5712 31.5783 22.5992C31.6336 22.6255 31.6744 22.6656 31.703 22.714C31.7314 22.7623 31.7499 22.8227 31.76 22.8928C31.7702 22.9634 31.7744 23.0397 31.7744 23.1222C31.7083 23.0764 31.633 23.0455 31.5538 23.0318C31.4771 23.0166 31.3992 23.0085 31.321 23.0076C31.2252 23.0076 31.1352 23.0216 31.0495 23.0458C30.9636 23.07 30.89 23.1062 30.8308 23.1545C30.7704 23.2028 30.7216 23.2639 30.6879 23.3334C30.652 23.4095 30.6339 23.4927 30.635 23.5767C30.635 23.7515 30.686 23.8885 30.7881 23.9849C30.89 24.0813 31.025 24.1297 31.1924 24.1297C31.3436 24.1297 31.464 24.1036 31.556 24.0511C31.6477 23.9989 31.7212 23.9385 31.7744 23.8701V24.1014H32.0767V23.0035C32.0767 22.7703 32.0255 22.5893 31.9214 22.4626C31.8193 22.3358 31.6375 22.2717 31.3803 22.2717C31.2699 22.2718 31.16 22.2869 31.0536 22.316ZM31.5948 23.7655C31.5215 23.8179 31.4254 23.8421 31.307 23.8421C31.2007 23.8421 31.1211 23.816 31.064 23.7655C31.0068 23.7133 30.9781 23.6449 30.9781 23.5605C30.9781 23.5103 30.9883 23.468 31.0109 23.4298C31.0332 23.3916 31.064 23.3614 31.0988 23.3372C31.1335 23.3131 31.1762 23.2949 31.2232 23.2829C31.2699 23.2709 31.318 23.2648 31.3662 23.265C31.5254 23.265 31.6622 23.3032 31.7746 23.3834V23.6106C31.7216 23.6697 31.6611 23.7217 31.5948 23.7655Z" fill="white"/>
<path d="M32.3929 22.3118H34.0492V22.6293H33.3833V24.1013H33.0608V22.6296H32.3951V22.3118H32.3929Z" fill="white"/>
<path fill-rule="evenodd" clip-rule="evenodd" d="M35.5565 24.0832C35.6791 24.045 35.7832 23.9866 35.873 23.9063L35.7749 23.6569C35.7157 23.7094 35.6361 23.7536 35.54 23.7898C35.4442 23.8261 35.3359 23.844 35.2175 23.844C35.0399 23.844 34.8928 23.7978 34.7763 23.7033C34.6598 23.6088 34.5967 23.4762 34.5824 23.307H35.9793C35.9933 23.2449 35.9996 23.1743 35.9996 23.0919C35.9996 22.9694 35.9771 22.8587 35.9322 22.7582C35.8904 22.6606 35.8292 22.5724 35.7524 22.4989C35.6747 22.4257 35.5831 22.369 35.483 22.3319C35.3781 22.2914 35.2666 22.2709 35.1542 22.2714C35.003 22.2714 34.8702 22.2975 34.754 22.3459C34.644 22.3918 34.5446 22.4596 34.4618 22.545C34.3813 22.63 34.3194 22.7306 34.28 22.8406C34.237 22.9577 34.2155 23.0817 34.2167 23.2065C34.2167 23.3473 34.2412 23.4759 34.2861 23.5907C34.3312 23.7053 34.3985 23.8039 34.4822 23.8863C34.5659 23.9687 34.6681 24.031 34.7887 24.0752C34.9177 24.1209 35.0539 24.1434 35.1908 24.1417C35.3114 24.1417 35.434 24.1214 35.5565 24.0832ZM34.7377 22.7038C34.8377 22.6134 34.9704 22.5692 35.1379 22.5692C35.2973 22.5692 35.4218 22.6134 35.5138 22.6958C35.6055 22.7804 35.6546 22.8969 35.6628 23.0457H34.5601C34.5756 22.9141 34.6388 22.7925 34.7377 22.7038ZM36.1569 22.3118H36.5653L37.188 23.1746L36.5224 24.1013H36.1263L36.8245 23.1743L36.1569 22.3118ZM37.2676 22.3118H37.5904V24.1013H37.2676V22.3118ZM38.7441 24.1013L38.0335 23.1743L38.6972 22.3116H38.2968L37.67 23.1743L38.3439 24.1013H38.7441ZM40.2186 24.0832C40.3411 24.045 40.4453 23.9866 40.535 23.9063L40.437 23.6569C40.3778 23.7094 40.2982 23.7536 40.2023 23.7898C40.1062 23.8261 39.998 23.844 39.8796 23.844C39.7019 23.844 39.5549 23.7978 39.4384 23.7033C39.3221 23.6088 39.2588 23.4762 39.2445 23.307H40.6413C40.6557 23.2449 40.6617 23.1743 40.6617 23.0919C40.6617 22.9694 40.6394 22.8587 40.5943 22.7582C40.5524 22.6606 40.4914 22.5724 40.4147 22.4989C40.337 22.4257 40.2453 22.369 40.1451 22.3319C40.0402 22.2914 39.9287 22.2709 39.8162 22.2714C39.6653 22.2714 39.5325 22.2975 39.4161 22.3459C39.3062 22.3919 39.2069 22.4596 39.1241 22.545C39.0435 22.6298 38.9816 22.7305 38.9424 22.8406C38.8992 22.9577 38.8778 23.0817 38.879 23.2065C38.879 23.3473 38.9035 23.4759 38.9484 23.5907C38.9933 23.7053 39.0608 23.8039 39.1445 23.8863C39.2282 23.9687 39.3302 24.031 39.4508 24.0752C39.5799 24.1209 39.7161 24.1434 39.8531 24.1417C39.9772 24.1408 40.1005 24.1211 40.2186 24.0832ZM39.3998 22.7038C39.5 22.6134 39.6328 22.5692 39.8002 22.5692C39.9575 22.5692 40.0839 22.6134 40.1759 22.6958C40.2679 22.7804 40.3169 22.8969 40.3249 23.0457H39.2222C39.2377 22.9141 39.3009 22.7925 39.3998 22.7038ZM41.971 21.7105C41.781 21.7105 41.6768 21.6059 41.6606 21.3969H41.3563C41.3563 21.4771 41.3706 21.5496 41.397 21.618C41.4237 21.6864 41.4626 21.7446 41.5135 21.7929C41.5645 21.8413 41.63 21.8795 41.7055 21.9094C41.781 21.9396 41.8688 21.9537 41.9688 21.9537C42.0608 21.9537 42.1425 21.9396 42.2161 21.9094C42.2896 21.8814 42.3508 21.8413 42.4039 21.7929C42.4549 21.7446 42.4959 21.6864 42.5243 21.618C42.5529 21.5496 42.5672 21.4771 42.5672 21.3969H42.2651C42.2508 21.6059 42.1506 21.7105 41.971 21.7105ZM41.0988 22.3116V24.1013H41.4215L42.4711 22.7681V24.1013H42.7939V22.3116H42.4711L41.4215 23.6448V22.3116H41.0988Z" fill="white"/>
</g>
<defs>
<clipPath id="clip0_1_284">
<rect width="58" height="29" fill="white" transform="translate(0.130005)"/>
</clipPath>
</defs>
</svg>
